<svg xmlns="http://www.w3.org/2000/svg" viewBox="0 0 205.932 75.938">
  <defs>
    <style>
      .cls-1 {
        fill: #fff;
      }

      .cls-2 {
        fill: #69b830;
      }

      .cls-3 {
        fill: #e83d3d;
      }

      .cls-4 {
        fill: #3aadea;
      }

      .cls-5 {
        fill: #f2ae05;
      }
    </style>
  </defs>
  <g id="Group_12" data-name="Group 12" transform="translate(-842.302 -143.297)">
    <path id="Path_37" data-name="Path 37" class="cls-1" d="M889.86,266.939c-.2.111-.18.331-.219.506a7.457,7.457,0,0,1-5.235,5.671,17.05,17.05,0,0,1-9.263.336c-2.054-.434-4.1-.9-6.1-1.53-.483-.151-.636-.05-.542.436.088.449-.028.64-.552.632-2.231-.031-4.461-.022-6.692-.005-.42,0-.609-.085-.631-.552-.045-.94-.161-1.875-.252-2.861a2.635,2.635,0,0,0-.7.653,9.657,9.657,0,0,1-5.3,3.187c-4.267.7-7.82-1.341-8.972-5.153a1.692,1.692,0,0,0-.152-.257c-.279,1.544-.547,3-.8,4.456-.05.29-.091.524-.457.586a20.725,20.725,0,0,1-8.044.211,6.858,6.858,0,0,1-5.646-7.06c-.036-4.011-.023-8.022.005-12.033,0-.618-.145-.8-.774-.779-1.6.048-3.211.015-4.888.015a15.463,15.463,0,0,1,1.188,4.65c.314,3.566.021,7.035-1.868,10.194a10.6,10.6,0,0,1-8.076,5.108,15.049,15.049,0,0,1-9.393-1.3,10.741,10.741,0,0,1-5.43-7.3,18.376,18.376,0,0,1,.176-9.716c.1-.348.017-.449-.306-.512-4.261-.839-6.626,1.409-6.788,5.155-.182,4.175-.064,8.363-.041,12.545,0,.62-.151.786-.776.776-2.488-.04-4.976-.033-7.464,0-.517.006-.638-.143-.638-.644q.008-10.327-.033-20.655a25.511,25.511,0,0,0-.212-3.721c-.067-.444.054-.6.525-.591,2.381.022,4.762.03,7.142-.005.544-.008.671.23.672.671,0,1.157,0,2.313,0,3.608a1.046,1.046,0,0,0,.494-.662,6.482,6.482,0,0,1,7.215-4.138c.409.049.529.211.525.617-.019,2.1-.009,4.2-.009,6.309.215.027.185-.158.221-.239a10.645,10.645,0,0,1,8.441-6.47,15.32,15.32,0,0,1,9.366,1.055,11,11,0,0,1,4.834,4.608V250.14c0-.73.026-1.46-.01-2.187-.023-.467.156-.575.592-.569,1.565.022,3.131-.01,4.7.019.476.009.633-.115.611-.606-.041-.9-.005-1.8-.014-2.7a.646.646,0,0,1,.268-.6q4.157-3.139,8.3-6.3a1.323,1.323,0,0,1,.217-.109,1.131,1.131,0,0,1,.068.651c.005,3,.013,6.005-.006,9.008,0,.483.1.669.627.655,1.457-.039,2.917,0,4.375-.022.421-.006.555.116.548.541-.021,1.651-.023,3.3,0,4.954.007.441-.149.538-.556.533-1.458-.021-2.918.009-4.375-.018-.461-.009-.627.089-.623.595.024,3.389.006,6.778.016,10.167.006,2.24,1.063,3.26,3.306,3.195.685-.021,1.367-.115,2.052-.136.472-.015.635-.189.565-.672a8.444,8.444,0,0,1,.452-4.238c.942-2.5,2.919-3.828,5.334-4.639a22.321,22.321,0,0,1,6.458-.974c.707-.023,1.416-.013,2.124-.014,1.044,0,1.044,0,.959-1.063a3.5,3.5,0,0,0-2.835-2.954,10.227,10.227,0,0,0-6.229.614,15.093,15.093,0,0,0-2.711,1.322c-.3.188-.408.12-.422-.224q-.116-2.8-.251-5.59c-.014-.283.136-.35.36-.43a25.925,25.925,0,0,1,7.151-1.472,21.079,21.079,0,0,1,6.959.5,7.273,7.273,0,0,1,5.725,6.706,21.215,21.215,0,0,1,.117,2.375q0,5.7,0,11.389v2.814l.218.028q.556-1.346,1.109-2.69c.245-.595.515-1.179.719-1.786.169-.5.33-.633.889-.382a16.181,16.181,0,0,0,7.807,1.5,4.184,4.184,0,0,0,1.846-.5,1.345,1.345,0,0,0,.166-2.37,10.33,10.33,0,0,0-2.678-1.22c-1.079-.414-2.179-.779-3.237-1.239-3.359-1.466-4.524-4.1-4.215-7.535.367-4.075,2.941-6.631,7.121-7.356a22.191,22.191,0,0,1,10.042.686c.417.12.579.286.55.748-.113,1.8-.193,3.6-.255,5.4-.015.449-.2.363-.469.247a16.715,16.715,0,0,0-4.808-1.339,6.454,6.454,0,0,0-2.8.19,1.675,1.675,0,0,0-1.342,1.389,1.606,1.606,0,0,0,1.063,1.664,41.333,41.333,0,0,0,4.887,1.949,15,15,0,0,1,1.926.879,5.6,5.6,0,0,1,2.855,3.851c.04.189-.014.44.212.569Zm-73.119-6.969c-.039-.662-.055-1.5-.142-2.328a7.874,7.874,0,0,0-.972-3.5,2.8,2.8,0,0,0-4.877.09,6.028,6.028,0,0,0-.674,1.864,24.007,24.007,0,0,0-.234,6.658,8.014,8.014,0,0,0,.851,3.271,2.745,2.745,0,0,0,1.726,1.435,2.914,2.914,0,0,0,3.645-2.117A17.2,17.2,0,0,0,816.741,259.969Zm43.656,1.973c0-.32-.005-.642,0-.963.005-.223-.041-.363-.312-.367a11.213,11.213,0,0,0-5.029.749,3.83,3.83,0,0,0-1.985,4.958,2.4,2.4,0,0,0,1.645,1.5,4.067,4.067,0,0,0,5.021-2.364A9.584,9.584,0,0,0,860.4,261.942Z" transform="translate(158.374 -63.277)"/>
    <path id="Path_38" data-name="Path 38" class="cls-2" d="M246.364,344.241c-.776-.373-.779-1.03-.641-1.741.422-2.167,1.215-4.231,1.79-6.354a26,26,0,0,0,1.169-7.845,11.522,11.522,0,0,0-.306-2.03,2.35,2.35,0,0,0-1.059-1.328,17.936,17.936,0,0,0-4.672-2.058,36.48,36.48,0,0,1-6.036-2.314,3.594,3.594,0,0,1-1.435-1.248c-.586-.99-.225-1.691.909-1.694a28.456,28.456,0,0,1,5.084.7,62.015,62.015,0,0,0,6.419.907A6.172,6.172,0,0,0,253,317.023a53.913,53.913,0,0,0,4.417-6.516,9.982,9.982,0,0,1,1.623-2.137c.786-.708,1.427-.539,1.82.447a3.663,3.663,0,0,1-.237,2.628c-.663,1.963-1.64,3.8-2.285,5.776a9.786,9.786,0,0,0-.412,5.865,8.14,8.14,0,0,0,2.469,3.673,39.753,39.753,0,0,0,6.24,4.361,12.869,12.869,0,0,1,2.229,1.615c.31.3.606.651.417,1.13-.2.494-.673.5-1.093.489a15.618,15.618,0,0,1-3.823-.793,49.11,49.11,0,0,0-5.3-1.261,4.928,4.928,0,0,0-5.511,2.438c-.994,1.649-1.9,3.343-2.829,5.022-.394.709-.816,1.4-1.243,2.094a6.128,6.128,0,0,1-2.345,2.386Z" transform="translate(637.639 -125.006)"/>
    <path id="Path_39" data-name="Path 39" class="cls-3" d="M0,202.086a2.278,2.278,0,0,1,1.938-.635c1.889,0,3.767.216,5.652.311a29.928,29.928,0,0,0,8.374-.55,4.371,4.371,0,0,0,3.592-4.1c.341-2.292.476-4.605.78-6.9a11.333,11.333,0,0,1,.821-3.355A2.043,2.043,0,0,1,22.45,185.6a.727.727,0,0,1,1.009.5,11.706,11.706,0,0,1,.471,3.232c.161,2.588.247,5.18.512,7.765.291,2.832,1.487,4.957,4.177,6.127.942.409,1.877.834,2.844,1.179,1.694.6,3.391,1.193,5.083,1.8a4.474,4.474,0,0,1,1.4.775.874.874,0,0,1,.086,1.439,2.107,2.107,0,0,1-1.433.638,17.225,17.225,0,0,1-4.461-.468,21.763,21.763,0,0,0-6.065-.488,7.272,7.272,0,0,0-5.491,3.385,30.789,30.789,0,0,0-3.1,7.1c-.311.888-.651,1.767-1,2.64a4.15,4.15,0,0,1-.475.834.779.779,0,0,1-1.485-.223,5.146,5.146,0,0,1-.228-1.779c.044-1.608.118-3.214.171-4.821a18.856,18.856,0,0,0-.266-4.354,4.162,4.162,0,0,0-2.605-3.18,58.075,58.075,0,0,0-6.429-2.023c-.9-.273-1.8-.565-2.681-.888A4.654,4.654,0,0,1,0,202.987Z" transform="translate(842.302 -18.374)"/>
    <path id="Path_40" data-name="Path 40" class="cls-4" d="M172.815,0a1.125,1.125,0,0,1,.454,1.29,43.331,43.331,0,0,1-1.17,4.536,26.354,26.354,0,0,0-1.116,7.211,3.654,3.654,0,0,0,2.588,3.754c2.064.784,4.211,1.309,6.268,2.11a9.44,9.44,0,0,1,1.565.737,3.046,3.046,0,0,1,.878.744,1.173,1.173,0,0,1,.251,1.2c-.176.416-.618.364-.961.364a27.356,27.356,0,0,1-4.141-.506,50.876,50.876,0,0,0-5.486-.644,5.214,5.214,0,0,0-4.565,2.144,45.266,45.266,0,0,0-3.169,4.91,10.931,10.931,0,0,1-1.433,2.05c-.27.278-.561.582-1,.422a1.139,1.139,0,0,1-.69-.941,4.044,4.044,0,0,1,.327-2.2c.5-1.367,1.066-2.709,1.557-4.079a9.641,9.641,0,0,0,.672-4.153,6.561,6.561,0,0,0-2.578-4.437,35.411,35.411,0,0,0-4.915-3.272A12.59,12.59,0,0,1,154.195,9.9c-.292-.26-.593-.557-.4-.994.171-.4.562-.417.937-.412a13.587,13.587,0,0,1,3.083.593,41.125,41.125,0,0,0,4.641,1,3.978,3.978,0,0,0,4.307-1.972c.8-1.319,1.494-2.7,2.22-4.057.3-.566.617-1.127.928-1.69A6.852,6.852,0,0,1,171.914,0Z" transform="translate(708.356 143.297)"/>
    <path id="Path_41" data-name="Path 41" class="cls-1" d="M584.746,245.871c.749.216,1.35.36,1.932.561a7.813,7.813,0,0,1,5.591,7.129,10.854,10.854,0,0,1-1.377,6.878,9.644,9.644,0,0,1-6.671,4.273,17.54,17.54,0,0,1-3.637.375c-4.631.009-9.262,0-13.893.018-.517,0-.637-.148-.637-.649q.021-17.818,0-35.634c0-.611.14-.786.771-.783,4.352.03,8.7,0,13.057.021a18.365,18.365,0,0,1,6.689,1.05c3.906,1.526,5.338,4.606,5.169,8.357A9.427,9.427,0,0,1,590.3,242.4a8.386,8.386,0,0,1-4.855,3.268C585.266,245.724,585.082,245.774,584.746,245.871Zm-9.132,7.953c0,1.286.013,2.572-.008,3.857-.006.394.118.525.511.512.985-.032,1.973.008,2.955-.05a3.659,3.659,0,0,0,3.654-3.317,6.829,6.829,0,0,0,.028-1.538,3.78,3.78,0,0,0-4-3.743c-.857-.008-1.716.018-2.571-.013-.438-.017-.6.1-.583.564C575.636,251.337,575.614,252.58,575.614,253.824Zm0-15.051c0,1.2.012,2.4-.008,3.6-.005.355.085.5.465.484.792-.032,1.588.013,2.377-.04a3.693,3.693,0,0,0,3.747-3.577,3.772,3.772,0,0,0-3.958-4.5c-.707-.012-1.416.017-2.121-.013-.393-.017-.52.107-.512.5C575.628,236.415,575.613,237.594,575.614,238.772Z" transform="translate(349.107 -55.392)"/>
    <path id="Path_42" data-name="Path 42" class="cls-5" d="M385.81,168a5.637,5.637,0,0,1-.694,1.617,34.371,34.371,0,0,0-2.533,4.915,3.175,3.175,0,0,0,.551,3.389c1.274,1.463,2.781,2.675,4.132,4.052a6.715,6.715,0,0,1,1.476,1.968.991.991,0,0,1-.188,1.176c-.3.314-.651.185-1,.028-1.708-.767-3.223-1.874-4.861-2.763a17.908,17.908,0,0,0-4.984-1.911,2.632,2.632,0,0,0-2.72,1,35.918,35.918,0,0,0-2.569,3.706,14.363,14.363,0,0,1-1.745,2.332c-.148.149-.309.288-.471.423-.444.372-.952.694-1.493.306-.516-.369-.2-.942-.04-1.355.562-1.415,1.2-2.8,1.816-4.192a19.2,19.2,0,0,0,1.375-3.832c.369-1.8-.59-3.134-1.655-4.424-1.026-1.242-2.2-2.34-3.28-3.534a4.6,4.6,0,0,1-.714-.969c-.157-.306-.393-.614-.062-.927a1.115,1.115,0,0,1,1.109-.31,7,7,0,0,1,2.306,1.31,20.985,20.985,0,0,0,4.241,2.766,5.138,5.138,0,0,0,4.667-.214,25.064,25.064,0,0,0,4.987-4.116,7.447,7.447,0,0,1,1.376-1.115C385.417,167,385.829,167.239,385.81,168Z" transform="translate(523.426 -2.365)"/>
    <path id="Path_43" data-name="Path 43" class="cls-3" d="M219.783,246.24a4.3,4.3,0,1,1-4.282-4.3A4.311,4.311,0,0,1,219.783,246.24Z" transform="translate(658.303 -67.502)"/>
    <path id="Path_44" data-name="Path 44" class="cls-2" d="M308.687,316.888a4.332,4.332,0,0,1-4.247-4.271,4.316,4.316,0,1,1,8.632-.055A4.318,4.318,0,0,1,308.687,316.888Z" transform="translate(577.046 -125.293)"/>
    <path id="Path_45" data-name="Path 45" class="cls-4" d="M268.816,185.721a3.571,3.571,0,1,1,3.6-3.579A3.581,3.581,0,0,1,268.816,185.721Z" transform="translate(611.193 -12.297)"/>
    <path id="Path_46" data-name="Path 46" class="cls-5" d="M349.94,231.035a3.033,3.033,0,0,1,3.076-3.045,3.081,3.081,0,1,1-.046,6.163A3.039,3.039,0,0,1,349.94,231.035Z" transform="translate(537.402 -55.348)"/>
  </g>
</svg>
