<svg xmlns="http://www.w3.org/2000/svg" viewBox="0 0 36.19 16.137">
  <defs>
    <style>
      .cls-1 {
        fill: #fff;
      }
    </style>
  </defs>
  <path id="Path_78" data-name="Path 78" class="cls-1" d="M18.1,16.137c-3.024,0-12.429-5.489-17.836-13.775A1.507,1.507,0,0,1,.453.435,1.466,1.466,0,0,1,1.489,0,1.557,1.557,0,0,1,2.628.5c2.113,2.2,9.446,10.855,15.474,10.855S31.463,2.693,33.576.5A1.5,1.5,0,0,1,35.751.435a1.533,1.533,0,0,1,.186,1.926C30.51,10.648,21.126,16.137,18.1,16.137Z" transform="translate(-0.003)"/>
</svg>
