<svg xmlns="http://www.w3.org/2000/svg" width="19.023" height="19.023" viewBox="0 0 19.023 19.023">
  <g id="small-calendar" transform="translate(0)">
    <g id="calendar_1_">
      <path id="Path_120" data-name="Path 120" d="M17.439,1.783H14.862V.594a.594.594,0,0,0-1.189,0V1.783H10.106V.594a.594.594,0,0,0-1.189,0V1.783H5.35V.594a.594.594,0,0,0-1.189,0V1.783H1.585A1.585,1.585,0,0,0,0,3.368v14.07a1.585,1.585,0,0,0,1.585,1.585H17.439a1.585,1.585,0,0,0,1.585-1.585V3.368A1.584,1.584,0,0,0,17.439,1.783Zm.4,15.655a.4.4,0,0,1-.4.4H1.585a.4.4,0,0,1-.4-.4V3.368a.4.4,0,0,1,.4-.4H4.161V4.161a.594.594,0,0,0,1.189,0V2.972H8.917V4.161a.594.594,0,0,0,1.189,0V2.972h3.567V4.161a.594.594,0,0,0,1.189,0V2.972h2.576a.4.4,0,0,1,.4.4Z" fill="#047edb"/>
      <rect id="Rectangle_73" data-name="Rectangle 73" width="2.378" height="1.783" transform="translate(4.161 7.134)" fill="#047edb"/>
      <rect id="Rectangle_74" data-name="Rectangle 74" width="2.378" height="1.783" transform="translate(4.161 10.106)" fill="#047edb"/>
      <rect id="Rectangle_75" data-name="Rectangle 75" width="2.378" height="1.783" transform="translate(4.161 13.079)" fill="#047edb"/>
      <rect id="Rectangle_76" data-name="Rectangle 76" width="2.378" height="1.783" transform="translate(8.323 13.079)" fill="#047edb"/>
      <rect id="Rectangle_77" data-name="Rectangle 77" width="2.378" height="1.783" transform="translate(8.323 10.106)" fill="#047edb"/>
      <rect id="Rectangle_78" data-name="Rectangle 78" width="2.378" height="1.783" transform="translate(8.323 7.134)" fill="#047edb"/>
      <rect id="Rectangle_79" data-name="Rectangle 79" width="2.378" height="1.783" transform="translate(12.484 13.079)" fill="#047edb"/>
      <rect id="Rectangle_80" data-name="Rectangle 80" width="2.378" height="1.783" transform="translate(12.484 10.106)" fill="#047edb"/>
      <rect id="Rectangle_81" data-name="Rectangle 81" width="2.378" height="1.783" transform="translate(12.484 7.134)" fill="#047edb"/>
    </g>
  </g>
</svg>
