<?xml version="1.0" encoding="utf-8"?>
<!-- Generator: Adobe Illustrator 21.0.0, SVG Export Plug-In . SVG Version: 6.00 Build 0)  -->
<svg version="1.1" id="Layer_1" xmlns="http://www.w3.org/2000/svg" xmlns:xlink="http://www.w3.org/1999/xlink" x="0px" y="0px"
	 viewBox="0 0 43 35" style="enable-background:new 0 0 43 35;" xml:space="preserve">
<style type="text/css">
	.st0{fill:#B5B5B5;}
	.st1{font-family:'VWHead';}
	.st2{font-size:32px;}
	.st3{fill:none;}
	.st4{fill:none;stroke:#B5B5B5;stroke-width:3;}
</style>
<g id="Group_2845" transform="translate(-508 -672)">
	<text transform="matrix(1 0 0 1 523 699)" class="st0 st1 st2">-</text>
	<g id="Rectangle_145" transform="translate(508 677)">
		<path class="st3" d="M8-5h27c4.4,0,8,3.6,8,8v19c0,4.4-3.6,8-8,8H8c-4.4,0-8-3.6-8-8V3C0-1.4,3.6-5,8-5z"/>
		<path class="st4" d="M8-3.5h27c3.6,0,6.5,2.9,6.5,6.5v19c0,3.6-2.9,6.5-6.5,6.5H8c-3.6,0-6.5-2.9-6.5-6.5V3C1.5-0.6,4.4-3.5,8-3.5
			z"/>
	</g>
</g>
</svg>
