<svg id="gearshift_1_" data-name="gearshift (1)" xmlns="http://www.w3.org/2000/svg" width="18" height="18" viewBox="0 0 18 18">
  <g id="Group_259" data-name="Group 259" transform="translate(4.15 4.633)">
    <g id="Group_258" data-name="Group 258">
      <path id="Path_121" data-name="Path 121" d="M126.583,131.774v3.78h-3.089v-3.78h-1.174v3.78h-3.089v-3.78h-1.174v8.735h1.174v-3.78h3.089v3.78h1.174v-3.78h4.263v-4.954Z" transform="translate(-118.058 -131.774)" fill="#047edb"/>
    </g>
  </g>
  <g id="Group_261" data-name="Group 261">
    <g id="Group_260" data-name="Group 260">
      <path id="Path_122" data-name="Path 122" d="M15.364,2.636A9,9,0,0,0,2.636,15.364,9,9,0,0,0,15.364,2.636ZM9,16.826A7.826,7.826,0,1,1,16.826,9,7.835,7.835,0,0,1,9,16.826Z" fill="#047edb"/>
    </g>
  </g>
  <g id="Group_263" data-name="Group 263" transform="translate(12.357 10.906)">
    <g id="Group_262" data-name="Group 262">
      <path id="Path_123" data-name="Path 123" d="M352.979,311.671a.8.8,0,0,0-.44-1.442h-1.047v2.279h.626v-.7h.234l.433.7h.706Zm-.466-.408h-.395v-.488h.379c.077,0,.173.087.173.244S352.591,311.263,352.514,311.263Z" transform="translate(-351.493 -310.229)" fill="#047edb"/>
    </g>
  </g>
</svg>
