<svg id="gas-station" xmlns="http://www.w3.org/2000/svg" width="18.333" height="20" viewBox="0 0 18.333 20">
  <g id="Group_257" data-name="Group 257">
    <g id="Group_256" data-name="Group 256">
      <path id="Path_115" data-name="Path 115" d="M114.583,53.333h-7.5a.418.418,0,0,0-.417.417v5.417a.418.418,0,0,0,.417.417h7.5a.418.418,0,0,0,.417-.417V53.75A.418.418,0,0,0,114.583,53.333Zm-.417,5.417H107.5V54.166h6.667Z" transform="translate(-103.333 -51.25)" fill="#047edb"/>
      <path id="Path_116" data-name="Path 116" d="M35.916,490.667H21.75a.417.417,0,1,0,0,.833H35.916a.417.417,0,1,0,0-.833Z" transform="translate(-21.333 -471.5)" fill="#047edb"/>
      <path id="Path_117" data-name="Path 117" d="M69.771,4.879,68.5,3.408a.241.241,0,0,0-.2-.087.432.432,0,0,0-.375.7l1.212,1.4c.283.325.446.525.446.825H68.417a.5.5,0,0,0-.5.5v2a.836.836,0,0,0,.833.833h.833v6.25a.418.418,0,0,1-.417.417h-.921c-.242,0-.329-.225-.329-.417V10.4A1.309,1.309,0,0,0,66.58,9.167h-.746V2.083A2.084,2.084,0,0,0,63.751,0H55.417a2.084,2.084,0,0,0-2.083,2.083V18.3c0,.421.338.425.9.437.3,0,.725.008,1.183.008h8.333c.463,0,.879,0,1.183-.008.563-.008.9-.017.9-.437V10h.746c.254,0,.5.2.5.4v5.438a1.182,1.182,0,0,0,1.163,1.25h.921a1.248,1.248,0,0,0,1.25-1.25V6.25A2.018,2.018,0,0,0,69.771,4.879ZM65,17.908c-.275,0-.7.008-1.25.008H55.417c-.554,0-.975,0-1.25-.008V2.083a1.248,1.248,0,0,1,1.25-1.25h8.333A1.248,1.248,0,0,1,65,2.083ZM69.584,8.75h-.833V7.083h.833Z" transform="translate(-52.084)" fill="#047edb"/>
    </g>
  </g>
</svg>
