<svg xmlns="http://www.w3.org/2000/svg" width="17.805" height="21.46" viewBox="0 0 17.805 21.46">
  <g id="curriculum-vitae" transform="translate(-28.18)">
    <g id="Group_2848" data-name="Group 2848">
      <path id="Path_165" data-name="Path 165" d="M44.267,0h-12.3a.26.26,0,0,0-.075.016H31.87a.26.26,0,0,0-.078.052L28.255,3.622A.26.26,0,0,0,28.2,3.7a.352.352,0,0,0-.023.1V19.745A1.718,1.718,0,0,0,29.9,21.46H44.267a1.718,1.718,0,0,0,1.718-1.715V1.718A1.718,1.718,0,0,0,44.267,0ZM31.714.921V2.366a1.178,1.178,0,0,1-1.175,1.178H29.093Zm12.555,20H29.887a1.178,1.178,0,0,1-1.175-1.175V4.084h1.816a1.718,1.718,0,0,0,1.718-1.718V.55H44.259a1.178,1.178,0,0,1,1.175,1.175l.01,18.02A1.178,1.178,0,0,1,44.269,20.921Z" transform="translate(0)" fill="#fff"/>
      <path id="Path_166" data-name="Path 166" d="M65.339,78.873h-.049a1.655,1.655,0,1,0-2.8,0H62.44a1.266,1.266,0,0,0-1.264,1.264v1.751a.259.259,0,0,0,.249.27h4.9a.259.259,0,0,0,.259-.259V80.137A1.266,1.266,0,0,0,65.339,78.873Zm.724,2.748H61.706V80.137a.724.724,0,0,1,.724-.724h.682a.259.259,0,0,0,.15-.493,1.116,1.116,0,1,1,1.235,0,.259.259,0,0,0,.15.5h.69a.724.724,0,0,1,.724.724Z" transform="translate(-30.856 -71.382)" fill="#fff"/>
      <path id="Path_167" data-name="Path 167" d="M168.535,83.96H162.09a.27.27,0,0,0,0,.54h6.445a.27.27,0,1,0,0-.54Z" transform="translate(-124.971 -78.514)" fill="#fff"/>
      <path id="Path_168" data-name="Path 168" d="M168.535,116.44H162.09a.27.27,0,0,0,0,.54h6.445a.27.27,0,1,0,0-.54Z" transform="translate(-124.971 -108.887)" fill="#fff"/>
      <path id="Path_169" data-name="Path 169" d="M168.535,148.88H162.09a.27.27,0,0,0,0,.54h6.445a.27.27,0,1,0,0-.54Z" transform="translate(-124.971 -139.223)" fill="#fff"/>
      <path id="Path_170" data-name="Path 170" d="M74.423,181.44H61.45a.27.27,0,1,0,0,.54H74.423a.27.27,0,1,0,0-.54Z" transform="translate(-30.859 -169.671)" fill="#fff"/>
      <path id="Path_171" data-name="Path 171" d="M74.423,213.76H61.45a.27.27,0,1,0,0,.54H74.423a.27.27,0,1,0,0-.54Z" transform="translate(-30.859 -199.894)" fill="#fff"/>
      <path id="Path_172" data-name="Path 172" d="M74.423,246.24H61.45a.27.27,0,0,0,0,.54H74.423a.27.27,0,1,0,0-.54Z" transform="translate(-30.859 -230.267)" fill="#fff"/>
    </g>
  </g>
</svg>
