<svg xmlns="http://www.w3.org/2000/svg" width="14" height="14" viewBox="0 0 14 14">
  <g id="Group_24" data-name="Group 24" transform="translate(-0.29 -101.61)">
    <path id="Path_6" data-name="Path 6" d="M7.29,101.61a7,7,0,1,0,7,7A7.008,7.008,0,0,0,7.29,101.61Zm0,13a6,6,0,1,1,6-6A6,6,0,0,1,7.29,114.61Z" fill="#047edb"/>
    <path id="Path_7" data-name="Path 7" d="M7.79,108.4v-3.93a.5.5,0,0,0-1,0v4.13a.433.433,0,0,0,.04.19.457.457,0,0,0,.11.16l2.95,2.95a.5.5,0,0,0,.35.15.485.485,0,0,0,.35-.15.5.5,0,0,0,0-.71Z" fill="#047edb"/>
  </g>
</svg>
