<svg id="Group_144" data-name="Group 144" xmlns="http://www.w3.org/2000/svg" width="50.818" height="16.555" viewBox="0 0 50.818 16.555">
  <path id="Path_92" data-name="Path 92" d="M20.813,16.018h0a1.589,1.589,0,0,0,1.673-1.474v-8.1A1.589,1.589,0,0,0,20.813,4.97h0A1.589,1.589,0,0,0,19.14,6.444v8.1A1.589,1.589,0,0,0,20.813,16.018Z" transform="translate(2.069 0.537)" fill="#fff"/>
  <path id="Path_93" data-name="Path 93" d="M46.987,14.855a1.651,1.651,0,0,1-3.3,0V9.9a1.451,1.451,0,0,0-1.651-1.629h-1.64a1.458,1.458,0,0,0-1.651,1.651v4.942a1.462,1.462,0,0,1-1.651,1.651,1.462,1.462,0,0,1-1.651-1.651l.011-13.175A1.462,1.462,0,0,1,37.1.04a1.446,1.446,0,0,1,1.64,1.651V3.32a1.467,1.467,0,0,0,1.651,1.651h3.291c2.205,0,3.3,1.1,3.291,3.313v6.571Z" transform="translate(3.832 0.004)" fill="#fff"/>
  <path id="Path_94" data-name="Path 94" d="M34.385,16.014a1.46,1.46,0,0,1-1.651-1.629V9.432a1.454,1.454,0,0,0-1.651-1.64h-3.3a1.447,1.447,0,0,0-1.64,1.64v1.651a1.45,1.45,0,0,0,1.64,1.651h1.651a1.45,1.45,0,0,1,1.64,1.651,1.45,1.45,0,0,1-1.64,1.651H26.141c-2.194,0-3.3-1.108-3.291-3.3l.011-4.942c0-2.194,1.086-3.313,3.291-3.3h6.593c2.194.011,3.291,1.1,3.291,3.3l.011,6.582A1.471,1.471,0,0,1,34.385,16.014Z" transform="translate(2.47 0.485)" fill="#fff"/>
  <path id="Path_95" data-name="Path 95" d="M19.487,6.131a1.462,1.462,0,0,1-1.651,1.651l-3.3-.011a1.462,1.462,0,0,0-1.651,1.651l.011,4.942A1.446,1.446,0,0,1,11.242,16a1.449,1.449,0,0,1-1.662-1.64V7.793c0-2.205,1.1-3.313,3.313-3.313h4.942A1.454,1.454,0,0,1,19.487,6.131Z" transform="translate(1.036 0.484)" fill="#fff"/>
  <path id="Path_96" data-name="Path 96" d="M9.9,6.131a1.454,1.454,0,0,1-1.651,1.64H4.953A1.458,1.458,0,0,0,3.3,9.422L3.28,11.073a1.45,1.45,0,0,0,1.651,1.64l3.3.011a1.449,1.449,0,0,1,1.651,1.651,1.442,1.442,0,0,1-1.64,1.64H3.291C1.1,16,0,14.918,0,12.713V7.782c0-2.205,1.108-3.3,3.313-3.3H8.255A1.45,1.45,0,0,1,9.9,6.131Z" transform="translate(0 0.484)" fill="#fff"/>
  <path id="Path_97" data-name="Path 97" d="M20.893,3.347a1.677,1.677,0,0,0,1.673-1.662,1.673,1.673,0,1,0-3.347-.011A1.679,1.679,0,0,0,20.893,3.347Z" transform="translate(2.078)" fill="#fff"/>
</svg>
