<?xml version="1.0" standalone="no"?>
<!-- The icon set is based on Material Design icons by Google (https://github.com/google/material-design-icons) -->
<!DOCTYPE svg PUBLIC "-//W3C//DTD SVG 1.1//EN" "http://www.w3.org/Graphics/SVG/1.1/DTD/svg11.dtd">
<svg viewBox="0 0 48 48" style="background-color:#ffffff00" version="1.1"
  xmlns="http://www.w3.org/2000/svg" xmlns:xlink="http://www.w3.org/1999/xlink" xml:space="preserve"
>
  <g id="close" transform="translate(0 -0.001)" style="display:none">
		<path fill="#1166B7" d="M28.2,24L47,5.2c1.2-1.1,1.3-3,0.2-4.2s-3-1.3-4.2-0.2c-0.1,0.1-0.1,0.1-0.2,0.2L24,19.8L5.2,1
			C4-0.2,2.1-0.1,0.9,1.1c-1.1,1.1-1.1,2.9,0,4.1L19.7,24L0.9,42.8c-1.2,1.1-1.2,3-0.1,4.2c1.1,1.2,3,1.2,4.2,0.1
			c0,0,0.1-0.1,0.1-0.1L24,28.2L42.8,47c1.1,1.2,3,1.4,4.2,0.3c1.2-1.1,1.4-3,0.3-4.2c-0.1-0.1-0.2-0.2-0.3-0.3L28.2,24z"/>
	</g>

	<g id="balao">
		<path fill="#1166B7" d="M10.7,47.4c-1.4,0-0.7-8.5-0.7-9.7c0-0.3,0.1-1.1,0-1.3c-0.2-0.4-1.3-0.7-1.6-0.9
			C7.7,35,7,34.5,6.3,34c-2.3-2-4.1-4.6-5.2-7.5c-1.8-5.3-1.1-11.4,2-16c3.1-4.6,8.2-7.6,13.5-9c10.7-2.7,24.8,0.7,29.7,11.6
			c2.1,4.8,2,10.5-0.5,15.2c-2.6,4.9-7.3,8.2-12.4,10c-1.6,0.5-3.3,0.9-5,1.2c-1.8,0.3-3.6,0.1-5.4,0.3c-1.2,0.1-2.2,1.1-3.2,1.8
			C18,42.7,16,44,14.1,45.3C13.3,45.8,11.7,47.4,10.7,47.4z M24,2C15.2,2,5.3,6.2,2.4,15.2c-1.4,4.4-1,9.4,1.3,13.4
			c1.2,2.1,2.9,4,4.9,5.4c0.7,0.5,2.4,1,2.7,1.8c0.1,0.3,0.1,0.7,0.1,1c0,2.9,0,5.7,0,8.6c2.8-1.9,5.7-3.8,8.5-5.6
			c1.2-0.8,2-1.5,3.4-1.5c3.4,0.1,6.9-0.4,10.1-1.6c5.3-1.9,10.1-5.8,12-11.2c1.8-5.3,0.7-11.2-2.8-15.5C38.3,4.4,30.9,2,24,2z"/>
		<path fill="#1166B7" d="M34.8,14.1c-6.6,0-13.2,0-19.9,0c-0.6,0-2.5,0.3-2.5-0.7c0-1.1,2-0.7,2.7-0.7c3.9,0,7.9,0,11.8,0
			c2,0,4.1,0,6.1,0c0.5,0,1.1-0.1,1.5,0C35.4,12.8,36.1,14.1,34.8,14.1z"/>
		<path fill="#1166B7" d="M34.8,21.1c-6.6,0-13.2,0-19.9,0c-0.6,0-2.5,0.3-2.5-0.7c0-1.1,2-0.7,2.7-0.7c3.9,0,7.9,0,11.8,0
			c2,0,4.1,0,6.1,0c0.5,0,1.1-0.1,1.5,0C35.4,19.8,36.1,21.1,34.8,21.1z"/>
		<path fill="#1166B7" d="M24,28.1c-2.1,0-4.2,0-6.3,0c-1.3,0-2.5,0-3.8,0c-0.2,0-0.5,0.1-0.7,0c-0.9-0.3-1-1.1,0-1.4
			c0.5-0.2,1.4,0,1.9,0c1.4,0,2.8,0,4.3,0c1.3,0,2.5,0,3.8,0c0.2,0,0.6-0.1,0.8,0C24.8,26.9,25.1,28.1,24,28.1z"/>
	</g>
	
</svg>