<?xml version="1.0" standalone="no"?>
<!-- The icon set is based on Material Design icons by Google (https://github.com/google/material-design-icons) -->
<!DOCTYPE svg PUBLIC "-//W3C//DTD SVG 1.1//EN" "http://www.w3.org/Graphics/SVG/1.1/DTD/svg11.dtd">
<svg viewBox="0 0 48 48" style="background-color:#ffffff00" version="1.1"
  xmlns="http://www.w3.org/2000/svg" xmlns:xlink="http://www.w3.org/1999/xlink" xml:space="preserve"
>
  <g id="close" transform="translate(0 -0.001)" style="display:none">
		<path fill="#1166B7" d="M28.2,24L47,5.2c1.2-1.1,1.3-3,0.2-4.2s-3-1.3-4.2-0.2c-0.1,0.1-0.1,0.1-0.2,0.2L24,19.8L5.2,1
			C4-0.2,2.1-0.1,0.9,1.1c-1.1,1.1-1.1,2.9,0,4.1L19.7,24L0.9,42.8c-1.2,1.1-1.2,3-0.1,4.2c1.1,1.2,3,1.2,4.2,0.1
			c0,0,0.1-0.1,0.1-0.1L24,28.2L42.8,47c1.1,1.2,3,1.4,4.2,0.3c1.2-1.1,1.4-3,0.3-4.2c-0.1-0.1-0.2-0.2-0.3-0.3L28.2,24z"/>
	</g>

	<g id="menu">
		<path fill="#1166B7" d="M0,0 48,0 48,2.3 0,2.3 0,0 0,0 z"/>
		<path fill="#1166B7" d="M0,15.3 48,15.3 48,17.7 0,17.7 0,15.3 0,15.3 z"/>
		<path fill="#1166B7" d="M0,30.5 48,30.5 48,32.8 0,32.8 0,30.5 0,30.5 z"/>
		<path fill="#1166B7" d="M0,45.7 48,45.7 48,48 0,48 0,45.7 0,45.7 z"/>
	</g>
	
</svg>