<svg xmlns="http://www.w3.org/2000/svg" width="42.363" height="43.079" viewBox="0 0 42.363 43.079">
  <g id="price-tag" transform="translate(-0.498 0)">
    <path id="Path_190" data-name="Path 190" d="M42.651.21a.717.717,0,0,0-1.015,0L38.974,2.872H22.257L1.24,24.061a2.533,2.533,0,0,0,0,3.583L15.935,42.339a2.539,2.539,0,0,0,3.589-.007L39.989,21.315V3.887l2.662-2.662A.718.718,0,0,0,42.651.21Zm-4.1,20.522L18.5,41.324a1.1,1.1,0,0,1-1.552,0L2.256,26.629a1.1,1.1,0,0,1,0-1.555l20.6-20.767H37.538l-3.47,3.47a3.6,3.6,0,1,0,1.015,1.015l3.47-3.47ZM34.246,10.77a2.154,2.154,0,1,1-2.154-2.154,2.129,2.129,0,0,1,.923.216l-1.43,1.43A.718.718,0,1,0,32.6,11.278l1.43-1.43A2.129,2.129,0,0,1,34.246,10.77Z" transform="translate(0 0)" fill="#047edb"/>
    <path id="Path_191" data-name="Path 191" d="M33.2,20.387a.718.718,0,0,0-1.015-1.015l-.536.536a6.437,6.437,0,0,0-4.574-1.391,4.232,4.232,0,0,0-2.952,1.575,4.52,4.52,0,0,0-.969,3.392l.546,4.373L17.278,34.28a5.03,5.03,0,0,1,.467-6.56.718.718,0,1,0-1.015-1.015,6.469,6.469,0,0,0-.477,8.6l-.82.82a.718.718,0,1,0,1.015,1.015l.821-.821A6.449,6.449,0,0,0,21.3,37.737q.27,0,.543-.023a4.225,4.225,0,0,0,2.952-1.574,4.519,4.519,0,0,0,.97-3.393l-.546-4.373,6.424-6.424a5.031,5.031,0,0,1-.467,6.561.718.718,0,0,0,1.015,1.015,6.47,6.47,0,0,0,.477-8.6ZM24.335,32.926a3.076,3.076,0,0,1-.66,2.31,2.805,2.805,0,0,1-1.956,1.048,5.058,5.058,0,0,1-3.426-.988l5.634-5.634Zm.245-9.621A3.077,3.077,0,0,1,25.239,21,2.81,2.81,0,0,1,27.2,19.947a5.034,5.034,0,0,1,3.426.988l-5.634,5.634Z" transform="translate(-4.044 -5.215)" fill="#047edb"/>
  </g>
</svg>
