<svg id="car_1_" data-name="car (1)" xmlns="http://www.w3.org/2000/svg" width="42.68" height="42.68" viewBox="0 0 42.68 42.68">
  <g id="Group_470" data-name="Group 470">
    <g id="Group_469" data-name="Group 469">
      <path id="Path_192" data-name="Path 192" d="M21.34,0A21.34,21.34,0,1,0,42.68,21.34,21.34,21.34,0,0,0,21.34,0Zm0,41.257A19.917,19.917,0,1,1,41.257,21.34,19.917,19.917,0,0,1,21.34,41.257Z" fill="#047edb"/>
    </g>
  </g>
  <g id="Group_472" data-name="Group 472" transform="translate(2.845 2.845)">
    <g id="Group_471" data-name="Group 471">
      <path id="Path_193" data-name="Path 193" d="M50.495,32A18.495,18.495,0,1,0,68.989,50.495,18.495,18.495,0,0,0,50.495,32Zm0,35.566A17.072,17.072,0,1,1,67.566,50.495,17.072,17.072,0,0,1,50.495,67.566Z" transform="translate(-32 -32)" fill="#047edb"/>
    </g>
  </g>
  <g id="Group_474" data-name="Group 474" transform="translate(4.979 20.629)">
    <g id="Group_473" data-name="Group 473">
      <rect id="Rectangle_128" data-name="Rectangle 128" width="2.845" height="1.423" fill="#047edb"/>
    </g>
  </g>
  <g id="Group_476" data-name="Group 476" transform="translate(34.855 20.629)">
    <g id="Group_475" data-name="Group 475">
      <rect id="Rectangle_129" data-name="Rectangle 129" width="2.845" height="1.423" fill="#047edb"/>
    </g>
  </g>
  <g id="Group_478" data-name="Group 478" transform="translate(6.815 27.483)">
    <g id="Group_477" data-name="Group 477" transform="translate(0 0)">
      <rect id="Rectangle_130" data-name="Rectangle 130" width="2.845" height="1.423" transform="translate(0 1.422) rotate(-29.993)" fill="#047edb"/>
    </g>
  </g>
  <g id="Group_480" data-name="Group 480" transform="translate(32.689 12.544)">
    <g id="Group_479" data-name="Group 479" transform="translate(0 0)">
      <rect id="Rectangle_131" data-name="Rectangle 131" width="2.845" height="1.423" transform="translate(0 1.422) rotate(-29.993)" fill="#047edb"/>
    </g>
  </g>
  <g id="Group_482" data-name="Group 482" transform="translate(6.815 12.543)">
    <g id="Group_481" data-name="Group 481" transform="translate(0 0)">
      <rect id="Rectangle_132" data-name="Rectangle 132" width="1.423" height="2.845" transform="translate(0 1.232) rotate(-60.007)" fill="#047edb"/>
    </g>
  </g>
  <g id="Group_484" data-name="Group 484" transform="translate(32.69 27.478)">
    <g id="Group_483" data-name="Group 483" transform="translate(0 0)">
      <rect id="Rectangle_133" data-name="Rectangle 133" width="1.423" height="2.845" transform="translate(0 1.232) rotate(-60.007)" fill="#047edb"/>
    </g>
  </g>
  <g id="Group_486" data-name="Group 486" transform="translate(12.541 6.816)">
    <g id="Group_485" data-name="Group 485" transform="translate(0 0)">
      <rect id="Rectangle_134" data-name="Rectangle 134" width="1.423" height="2.845" transform="translate(0 0.711) rotate(-29.993)" fill="#047edb"/>
    </g>
  </g>
  <g id="Group_488" data-name="Group 488" transform="translate(20.629 4.979)">
    <g id="Group_487" data-name="Group 487">
      <rect id="Rectangle_135" data-name="Rectangle 135" width="1.423" height="2.845" fill="#047edb"/>
    </g>
  </g>
  <g id="Group_490" data-name="Group 490" transform="translate(27.481 6.814)">
    <g id="Group_489" data-name="Group 489" transform="translate(0)">
      <rect id="Rectangle_136" data-name="Rectangle 136" width="2.845" height="1.423" transform="translate(0 2.464) rotate(-60.007)" fill="#047edb"/>
    </g>
  </g>
  <g id="Group_492" data-name="Group 492" transform="translate(5.352 16.418)">
    <g id="Group_491" data-name="Group 491" transform="translate(0 0)">
      <rect id="Rectangle_137" data-name="Rectangle 137" width="1.423" height="2.134" transform="matrix(0.259, -0.966, 0.966, 0.259, 0, 1.374)" fill="#047edb"/>
    </g>
  </g>
  <g id="Group_494" data-name="Group 494" transform="translate(34.893 24.333)">
    <g id="Group_493" data-name="Group 493" transform="translate(0 0)">
      <rect id="Rectangle_138" data-name="Rectangle 138" width="1.423" height="2.134" transform="matrix(0.259, -0.966, 0.966, 0.259, 0, 1.374)" fill="#047edb"/>
    </g>
  </g>
  <g id="Group_496" data-name="Group 496" transform="translate(9.268 9.268)">
    <g id="Group_495" data-name="Group 495" transform="translate(0 0)">
      <rect id="Rectangle_139" data-name="Rectangle 139" width="1.423" height="2.134" transform="translate(0 1.006) rotate(-45)" fill="#047edb"/>
    </g>
  </g>
  <g id="Group_498" data-name="Group 498" transform="translate(16.415 5.353)">
    <g id="Group_497" data-name="Group 497" transform="translate(0 0)">
      <rect id="Rectangle_140" data-name="Rectangle 140" width="1.423" height="2.134" transform="matrix(0.966, -0.259, 0.259, 0.966, 0, 0.368)" fill="#047edb"/>
    </g>
  </g>
  <g id="Group_500" data-name="Group 500" transform="translate(24.334 5.357)">
    <g id="Group_499" data-name="Group 499" transform="translate(0 0)">
      <rect id="Rectangle_141" data-name="Rectangle 141" width="2.134" height="1.423" transform="matrix(0.259, -0.966, 0.966, 0.259, 0, 2.061)" fill="#047edb"/>
    </g>
  </g>
  <g id="Group_502" data-name="Group 502" transform="translate(30.896 9.27)">
    <g id="Group_501" data-name="Group 501" transform="translate(0 0)">
      <rect id="Rectangle_142" data-name="Rectangle 142" width="2.134" height="1.423" transform="translate(0 1.509) rotate(-45)" fill="#047edb"/>
    </g>
  </g>
  <g id="Group_504" data-name="Group 504" transform="translate(34.901 16.418)">
    <g id="Group_503" data-name="Group 503" transform="translate(0 0)">
      <rect id="Rectangle_143" data-name="Rectangle 143" width="2.134" height="1.423" transform="matrix(0.966, -0.259, 0.259, 0.966, 0, 0.552)" fill="#047edb"/>
    </g>
  </g>
  <g id="Group_506" data-name="Group 506" transform="translate(5.352 24.335)">
    <g id="Group_505" data-name="Group 505" transform="translate(0 0)">
      <rect id="Rectangle_144" data-name="Rectangle 144" width="2.134" height="1.423" transform="matrix(0.966, -0.259, 0.259, 0.966, 0, 0.552)" fill="#047edb"/>
    </g>
  </g>
  <g id="Group_508" data-name="Group 508" transform="translate(9.249 9.25)">
    <g id="Group_507" data-name="Group 507">
      <path id="Path_194" data-name="Path 194" d="M119.128,104.421a12.093,12.093,0,0,0-13.492,17.75.711.711,0,0,0,1.231-.711,10.67,10.67,0,1,1,19.577-2.666.712.712,0,0,0,1.379.356v0A12.093,12.093,0,0,0,119.128,104.421Z" transform="translate(-104.019 -104.035)" fill="#047edb"/>
    </g>
  </g>
  <g id="Group_510" data-name="Group 510" transform="translate(18.494 18.497)">
    <g id="Group_509" data-name="Group 509">
      <path id="Path_195" data-name="Path 195" d="M221.249,216.013l-7.825-6.4a.673.673,0,0,0-.066-.036,2.837,2.837,0,1,0-2.689,4.126l9.887,3.532a.7.7,0,0,0,.242.042.711.711,0,0,0,.45-1.262ZM210.841,212.3a1.423,1.423,0,1,1,1.423-1.423A1.423,1.423,0,0,1,210.841,212.3Zm1.938.649a2.828,2.828,0,0,0,.807-1.364l3.586,2.93Z" transform="translate(-207.995 -208.03)" fill="#047edb"/>
    </g>
  </g>
  <g id="Group_512" data-name="Group 512" transform="translate(14.938 28.453)">
    <g id="Group_511" data-name="Group 511">
      <path id="Path_196" data-name="Path 196" d="M177.247,320h-5.691a3.557,3.557,0,0,0,0,7.113h5.691a3.557,3.557,0,0,0,0-7.113Zm0,5.691h-5.691a2.134,2.134,0,0,1,0-4.268h5.691a2.134,2.134,0,1,1,0,4.268Z" transform="translate(-168 -320)" fill="#047edb"/>
    </g>
  </g>
  <g id="Group_514" data-name="Group 514" transform="translate(17.783 31.298)">
    <g id="Group_513" data-name="Group 513">
      <path id="Path_197" data-name="Path 197" d="M202.134,352h-1.423a.711.711,0,1,0,0,1.423h1.423a.711.711,0,1,0,0-1.423Z" transform="translate(-200 -352)" fill="#047edb"/>
    </g>
  </g>
  <g id="Group_516" data-name="Group 516" transform="translate(22.051 31.298)">
    <g id="Group_515" data-name="Group 515">
      <path id="Path_198" data-name="Path 198" d="M250.134,352h-1.423a.711.711,0,1,0,0,1.423h1.423a.711.711,0,1,0,0-1.423Z" transform="translate(-248 -352)" fill="#047edb"/>
    </g>
  </g>
</svg>
