<svg xmlns="http://www.w3.org/2000/svg" width="48.751" height="46.11" viewBox="0 0 48.751 46.11">
  <path id="paint-bucket_1_" data-name="paint-bucket (1)" d="M43.051,23.063h0l-19.5-19.5a1.428,1.428,0,0,0-2.02,0l-6.64,6.64L5.607.918a1.428,1.428,0,0,0-2.02,2.02l9.28,9.281L1.574,23.513a5.4,5.4,0,0,0,0,7.623l13.9,13.9a5.353,5.353,0,0,0,3.811,1.574h0A5.351,5.351,0,0,0,23.1,45.036L35.544,32.589a10.338,10.338,0,0,0-.214,2.048,6.719,6.719,0,0,0,6.71,6.711h0a6.719,6.719,0,0,0,6.711-6.711C48.751,28.831,43.284,23.3,43.051,23.063ZM21.078,43.016a2.546,2.546,0,0,1-3.583,0l-13.9-13.9a2.545,2.545,0,0,1,0-3.583L14.887,14.239l5.651,5.652a4.6,4.6,0,1,0,2.02-2.02l-5.651-5.651,5.63-5.63L40.021,24.073ZM24.639,20.23a1.74,1.74,0,1,1-1.231.51A1.73,1.73,0,0,1,24.639,20.23Zm17.4,18.261a3.859,3.859,0,0,1-3.854-3.854c0-3.279,2.429-6.695,3.854-8.417,1.426,1.722,3.854,5.138,3.854,8.417A3.858,3.858,0,0,1,42.041,38.491Zm0,0" transform="translate(0 -0.5)" fill="#047edb"/>
</svg>
