<svg xmlns="http://www.w3.org/2000/svg" width="19.023" height="17.993" viewBox="0 0 19.023 17.993">
  <path id="paint-bucket_1_" data-name="paint-bucket (1)" d="M16.8,9.3h0l-7.61-7.61a.557.557,0,0,0-.788,0L5.809,4.285,2.188.663a.557.557,0,0,0-.788.788L5.021,5.073.614,9.48a2.108,2.108,0,0,0,0,2.974l5.425,5.424a2.089,2.089,0,0,0,1.487.614h0a2.088,2.088,0,0,0,1.487-.614l4.857-4.857a4.034,4.034,0,0,0-.084.8A2.622,2.622,0,0,0,16.4,16.439h0a2.622,2.622,0,0,0,2.619-2.619C19.023,11.555,16.89,9.4,16.8,9.3ZM8.225,17.09a.993.993,0,0,1-1.4,0L1.4,11.666a.993.993,0,0,1,0-1.4L5.809,5.861,8.014,8.066A1.793,1.793,0,1,0,8.8,7.278L6.6,5.073l2.2-2.2L15.617,9.7ZM9.615,8.2a.679.679,0,1,1-.48.2A.675.675,0,0,1,9.615,8.2Zm6.79,7.126a1.506,1.506,0,0,1-1.5-1.5,5.852,5.852,0,0,1,1.5-3.284,5.852,5.852,0,0,1,1.5,3.284A1.506,1.506,0,0,1,16.4,15.325Zm0,0" transform="translate(0 -0.5)" fill="#047edb"/>
</svg>
