<svg xmlns="http://www.w3.org/2000/svg" width="11.05" height="14.33" viewBox="0 0 11.05 14.33">
  <g id="pin_1_" transform="translate(-1.76)">
    <g id="XMLID_2_">
      <path id="Path_1" data-name="Path 1" d="M7.29,14.33a1.114,1.114,0,0,1-.8-.35c-1.42-1.52-4.73-5.4-4.73-8.5a5.525,5.525,0,0,1,11.05,0c0,3.08-3.3,6.97-4.73,8.5a1.075,1.075,0,0,1-.79.35ZM7.29,1A4.507,4.507,0,0,0,2.77,5.48c0,2.82,3.41,6.7,4.46,7.82h.13c1.05-1.13,4.46-5.02,4.46-7.82A4.509,4.509,0,0,0,7.29,1Z" fill="#047edb"/>
    </g>
    <g id="XMLID_1_">
      <path id="Path_2" data-name="Path 2" d="M7.29,8.42a2.86,2.86,0,1,1,2.86-2.86A2.859,2.859,0,0,1,7.29,8.42Zm0-4.72A1.86,1.86,0,1,0,9.15,5.56,1.856,1.856,0,0,0,7.29,3.7Z" fill="#047edb"/>
    </g>
  </g>
</svg>
