<svg xmlns="http://www.w3.org/2000/svg" width="26.676" height="26.676" viewBox="0 0 26.676 26.676">
  <g id="Group_2846" data-name="Group 2846" transform="translate(26.676 26.676) rotate(180)">
    <path id="Path_72" data-name="Path 72" d="M13.338,0A13.338,13.338,0,1,0,26.676,13.338,13.35,13.35,0,0,0,13.338,0Zm0,25.489A12.151,12.151,0,1,1,25.489,13.338,12.167,12.167,0,0,1,13.338,25.489Z" fill="#3a3a3a"/>
    <path id="Path_73" data-name="Path 73" d="M24.113,19.069a.6.6,0,0,0-.131-.2L19.93,14.821a.592.592,0,1,0-.837.837L22.137,18.7H14.1a.593.593,0,1,0,0,1.187h8.028l-3.044,3.044a.591.591,0,0,0,0,.837.583.583,0,0,0,.421.172.608.608,0,0,0,.421-.172l4.052-4.052a.567.567,0,0,0,.131-.2A.593.593,0,0,0,24.113,19.069Z" transform="translate(-5.494 -5.957)" fill="#3a3a3a"/>
  </g>
</svg>
