<svg xmlns="http://www.w3.org/2000/svg" width="44.595" height="42.466" viewBox="0 0 44.595 42.466">
  <g id="star" transform="translate(0 -11.714)">
    <path id="Path_199" data-name="Path 199" d="M41.207,25.209l-10.878-.782a.583.583,0,0,1-.509-.373L25.676,13.968a3.646,3.646,0,0,0-6.743.009l-4.153,10.1a.609.609,0,0,1-.509.373l-10.86.782A3.59,3.59,0,0,0,.2,27.69a3.562,3.562,0,0,0,1.081,3.935l8.406,6.943a.6.6,0,0,1,.2.6L7.329,49.654a3.544,3.544,0,0,0,.573,3.1,3.625,3.625,0,0,0,2.863,1.427,3.453,3.453,0,0,0,1.917-.582l9.187-5.716a.6.6,0,0,1,.627,0l9.278,5.7a3.473,3.473,0,0,0,1.936.6,3.564,3.564,0,0,0,2.754-1.345,3.683,3.683,0,0,0,.7-3.144L34.591,39.176a.612.612,0,0,1,.2-.609l8.533-6.961a3.647,3.647,0,0,0-2.117-6.4Zm.7,4.68-8.515,6.952a2.832,2.832,0,0,0-.954,2.863l2.572,10.5a1.435,1.435,0,0,1-.273,1.245,1.338,1.338,0,0,1-1.018.518,1.267,1.267,0,0,1-.727-.245l-9.315-5.725a2.828,2.828,0,0,0-1.481-.418,2.786,2.786,0,0,0-1.49.427l-9.224,5.734a1.35,1.35,0,0,1-1.8-.327,1.29,1.29,0,0,1-.191-1.19l2.572-10.523a2.839,2.839,0,0,0-.945-2.844L2.73,29.916a1.411,1.411,0,0,1,.836-2.472l10.878-.782a2.815,2.815,0,0,0,2.408-1.745l4.153-10.1a1.412,1.412,0,0,1,2.617,0l4.153,10.1a2.815,2.815,0,0,0,2.408,1.745l10.9.791a1.368,1.368,0,0,1,1.227.954A1.4,1.4,0,0,1,41.907,29.889Z" transform="translate(0 0)" fill="#047edb"/>
  </g>
</svg>
