<svg xmlns="http://www.w3.org/2000/svg" width="10.473" height="14.59" viewBox="0 0 10.473 14.59">
  <g id="handset_1_" transform="translate(-2.06 -33.1)">
    <path id="Path_3" data-name="Path 3" d="M10.44,47.69h-.02c-1.61-.01-4.58-2.21-6.45-5.47l.37-.35-.43.26V42.1c-1.86-3.25-2.26-6.93-1.46-8.33a1.215,1.215,0,0,1,1.04-.67l1.93.09a1.011,1.011,0,0,1,.81.52l.03.06a1.513,1.513,0,0,1,.16.79c0,.12.01.28.02.49.04.37.1.81.15,1.11a1.063,1.063,0,0,1-.71,1.23l-.5.13a.16.16,0,0,0-.09.07,7.058,7.058,0,0,0,.94,2.5c.13.25.24.46.31.58a4.844,4.844,0,0,0,.34.57,6.3,6.3,0,0,0,1.71,2.07.189.189,0,0,0,.08-.05l.37-.36a1.058,1.058,0,0,1,1.42.01c.23.2.58.47.9.71.15.1.28.18.39.25a1.5,1.5,0,0,1,.6.53l.05.09a.989.989,0,0,1,.03.93l-.89,1.69A1.192,1.192,0,0,1,10.44,47.69ZM4.78,41.62l.05.09c1.74,3.04,4.48,4.98,5.6,4.99.11,0,.2-.01.23-.07L11.52,45l-.03-.06c-.02-.05-.03-.05-.28-.21-.11-.07-.25-.16-.43-.28-.37-.28-.74-.56-.98-.78l-.43.31a1.2,1.2,0,0,1-.83.33c-.24,0-.89-.01-2.5-2.53l-.37-.6c-.08-.13-.2-.36-.33-.62-1.36-2.67-1.04-3.23-.92-3.44a1.156,1.156,0,0,1,.71-.55l.5-.13c-.07-.4-.13-.86-.18-1.29-.01-.25-.02-.42-.02-.55-.01-.3-.01-.3-.04-.35l-.05-.09-1.86-.05c-.04,0-.11.09-.15.17-.56.97-.27,4.32,1.46,7.33l-.43.25Z" fill="#047edb"/>
  </g>
</svg>
