<svg xmlns="http://www.w3.org/2000/svg" width="14.58" height="14.58" viewBox="0 0 14.58 14.58">
  <g id="call_1_" transform="translate(0 -65.58)">
    <g id="Group_22" data-name="Group 22">
      <path id="Path_4" data-name="Path 4" d="M6.27,71.3c-.02.02-.03.04-.05.05-.15.17-.07.42.02.69a4.423,4.423,0,0,0,1.94,2.13.6.6,0,0,0,.69,0c.02-.02.04-.03.05-.05a.649.649,0,0,1,.65-.17c.14.06.26.12.47.2a.7.7,0,0,1,.46.71,2.62,2.62,0,0,1-.35.85.675.675,0,0,1-.8.17,6.821,6.821,0,0,1-4.87-4.97c-.11-.35-.06-.68.15-.8a1.731,1.731,0,0,1,.84-.38.772.772,0,0,1,.74.44c.07.13.12.29.18.43A.673.673,0,0,1,6.27,71.3Z" fill="#047edb"/>
    </g>
    <g id="Group_23" data-name="Group 23">
      <path id="Path_5" data-name="Path 5" d="M.5,80.16a.469.469,0,0,1-.35-.15.5.5,0,0,1-.13-.49l.89-3.13a7.269,7.269,0,1,1,2.85,2.86l-3.13.89A.507.507,0,0,1,.5,80.16Zm3.33-1.95a.484.484,0,0,1,.26.07,6.224,6.224,0,0,0,3.21.88,6.288,6.288,0,1,0-5.42-3.08.488.488,0,0,1,.05.39l-.7,2.47,2.47-.7A.208.208,0,0,1,3.83,78.21Z" fill="#047edb"/>
    </g>
  </g>
</svg>
